<?xml version="1.0" encoding="UTF-8" ?>
<svg xmlns="http://www.w3.org/2000/svg" width="48.029" height="48.004" viewBox="0 0 48.029 48.004"><defs xmlns="http://www.w3.org/2000/svg"><linearGradient gradientUnits="userSpaceOnUse" id="grad521844" x1="0%" y1="0%" x2="0%" y2="100%"><stop offset="0%" stop-color="#f42958"></stop><stop offset="100%" stop-color="#f42958"></stop></linearGradient></defs> <g id="Icon" transform="translate(-404 -211.996)"> <path id="Path_8815" data-name="Path 8815" d="M412,252v-1.572a2.989,2.989,0,0,1,2.457-2.959,33.008,33.008,0,0,1,11.086,0A2.989,2.989,0,0,1,428,250.428V252" fill="none" stroke="#892020" stroke-miterlimit="10" stroke-width="2"></path> <path id="Path_8816" data-name="Path 8816" d="M424,239a4,4,0,0,1-8,0v-2a4,4,0,0,1,8,0Z" fill="none" stroke="#892020" stroke-miterlimit="10" stroke-width="2"></path> <line id="Line_8" data-name="Line 8" x1="7.999" transform="translate(424 255)" fill="none" stroke="#892020" stroke-miterlimit="10" stroke-width="2"></line> <path id="Path_8817" data-name="Path 8817" d="M422,255H405v1a3,3,0,0,0,3,3h40a3,3,0,0,0,3-3v-1H434" fill="none" stroke="#892020" stroke-miterlimit="10" stroke-width="2"></path> <path id="Path_8818" data-name="Path 8818" d="M424,225H410a3,3,0,0,0-3,3v27" fill="none" stroke="#892020" stroke-miterlimit="10" stroke-width="2"></path> <line id="Line_9" data-name="Line 9" y1="18" transform="translate(449 237)" fill="none" stroke="#892020" stroke-miterlimit="10" stroke-width="2"></line> <line id="Line_10" data-name="Line 10" x2="17" transform="translate(407 229)" fill="none" stroke="#892020" stroke-miterlimit="10" stroke-width="2"></line> <path id="Path_8819" data-name="Path 8819" d="M444,222a5,5,0,1,0-8.451,3.612A4.677,4.677,0,0,1,437,229h4a4.677,4.677,0,0,1,1.451-3.388A4.973,4.973,0,0,0,444,222Z" fill="none" stroke="#892020" stroke-miterlimit="10" stroke-width="2"></path> <path id="Path_8820" data-name="Path 8820" d="M441,231a2,2,0,0,1-4,0v-2h4Z" fill="none" stroke="#892020" stroke-miterlimit="10" stroke-width="2"></path> <path id="Path_8821" data-name="Path 8821" d="M446.75,234.17a12.082,12.082,0,0,1-10.73,2.45L430,240.59l.43-7.2A12,12,0,0,1,428.61,219a10.885,10.885,0,0,1,1.23-1.74" fill="none" stroke="#892020" stroke-miterlimit="10" stroke-width="2"></path> <path id="Path_8822" data-name="Path 8822" d="M431.25,215.83A12,12,0,0,1,449.39,231a10.885,10.885,0,0,1-1.23,1.74" fill="none" stroke="#892020" stroke-miterlimit="10" stroke-width="2"></path> </g> </svg>